---
---
<?xml version="1.0" encoding="UTF-8"?>
<svg width="224" height="70" version="1.0" viewBox="5.5 -9.5 224 70" xml:space="preserve" xmlns="http://www.w3.org/2000/svg" fill="#fff">
<circle cx="37.4" cy="28.4" r="28.9" fill="#333" stroke="#fff" stroke-width="6" id="c"/>
<use href="#c" x="80"/>
<use href="#c" x="160"/>
<path d="m37.1 23.2-4.29 2.23c-0.458-0.951-1.02-1.62-1.68-2-0.667-0.38-1.29-0.571-1.86-0.571-2.86 0-4.29 1.88-4.29 5.66 0 1.71 0.362 3.08 1.08 4.11 0.724 1.03 1.79 1.54 3.2 1.54 1.87 0 3.18-0.915 3.94-2.74l3.94 2c-0.838 1.56-2 2.79-3.49 3.69-1.48 0.896-3.12 1.34-4.91 1.34-2.86 0-5.16-0.875-6.92-2.63-1.75-1.75-2.63-4.19-2.63-7.31 0-3.05 0.886-5.47 2.66-7.26 1.77-1.79 4.01-2.69 6.72-2.69 3.96-2e-3 6.8 1.54 8.52 4.63zm18.5 0-4.23 2.23c-0.457-0.951-1.02-1.62-1.69-2-0.668-0.38-1.31-0.571-1.91-0.571-2.86 0-4.29 1.88-4.29 5.66 0 1.71 0.363 3.08 1.09 4.11s1.79 1.54 3.2 1.54c1.86 0 3.18-0.915 3.94-2.74l4 2c-0.875 1.56-2.06 2.79-3.54 3.69-1.49 0.896-3.1 1.34-4.86 1.34-2.9 0-5.21-0.875-6.94-2.63-1.74-1.75-2.6-4.19-2.6-7.31 0-3.05 0.885-5.47 2.66-7.26 1.77-1.79 4.01-2.69 6.71-2.69 3.96-2e-3 6.78 1.54 8.46 4.63z"/>
<path d="m126.1 20.6v13.1h-3.66v15.5h-9.94v-15.5h-3.66v-13.1c0-0.572 0.2-1.06 0.599-1.46 0.401-0.399 0.887-0.6 1.46-0.6h13.1c0.533 0 1.01 0.2 1.43 0.6 0.417 0.4 0.628 0.886 0.628 1.46zm-13.1-8.23c0-3.01 1.48-4.51 4.46-4.51s4.46 1.5 4.46 4.51c0 2.97-1.49 4.46-4.46 4.46s-4.46-1.49-4.46-4.46z"/>
<path d="m220.4 41.2-12.1-5.37c-0.421 2.02-1.44 3.67-3.06 4.94-1.62 1.28-3.54 2.01-5.74 2.2v4.92h-3.71v-4.92c-3.54-0.036-6.78-1.31-9.71-3.83l4.4-4.46c2.09 1.94 4.48 2.91 7.14 2.91 1.1 0 2.05-0.246 2.83-0.743 0.78-0.494 1.17-1.31 1.17-2.46 0-0.801-0.287-1.45-0.858-1.94l-3.08-1.32-3.77-1.72-5.09-2.23-16.3-7.3 2.86-5.7 12.2 5.48c0.533-1.68 1.54-3.02 3.03-4.03 1.48-1.01 3.22-1.57 5.2-1.69v-4.92h3.72v4.92c2.93 0.153 5.6 1.14 8 2.97l-4.17 4.29c-1.79-1.26-3.62-1.88-5.49-1.88-0.991 0-1.88 0.191-2.66 0.571-0.781 0.381-1.17 1.03-1.17 1.94 0 0.267 0.095 0.533 0.285 0.8l6.86 3.09 5.14 2.28 16.4 7.31z"/>

</svg>
