---
---
<?xml version="1.0" encoding="UTF-8"?>
<svg width="224" height="70" version="1.0" viewBox="5.5 -9.5 224 70" xml:space="preserve" xmlns="http://www.w3.org/2000/svg">
<g transform="translate(80)">
	<circle cx="37.6" cy="28.8" r="28.3" fill="#fff"/>
		<path d="m37.4-3.5c8.99 0 16.6 3.08 22.7 9.26 6.21 6.21 9.32 13.8 9.32 22.7 0 8.99-3.05 16.5-9.14 22.5-6.48 6.36-14.1 9.54-22.9 9.54-8.65 0-16.2-3.14-22.5-9.43-6.28-6.29-9.43-13.8-9.43-22.6 0-8.76 3.14-16.3 9.43-22.7 6.17-6.17 13.7-9.26 22.5-9.26zm0.114 5.77c-7.28 0-13.4 2.55-18.5 7.66-5.22 5.33-7.83 11.5-7.83 18.6 0 7.09 2.59 13.2 7.77 18.4 5.18 5.18 11.4 7.77 18.5 7.77 7.12 0 13.3-2.61 18.6-7.83 5.03-4.84 7.54-11 7.54-18.3 0-7.28-2.55-13.5-7.66-18.6-5.1-5.1-11.3-7.66-18.5-7.66zm8.57 18.3v13.1h-3.66v15.5h-9.94v-15.5h-3.66v-13.1c0-0.572 0.2-1.06 0.599-1.46 0.401-0.399 0.887-0.6 1.46-0.6h13.1c0.533 0 1.01 0.2 1.43 0.6 0.417 0.4 0.628 0.886 0.628 1.46zm-13.1-8.23c0-3.01 1.48-4.51 4.46-4.51s4.46 1.5 4.46 4.51c0 2.97-1.49 4.46-4.46 4.46s-4.46-1.49-4.46-4.46z"/>
</g>
<g>
	<circle cx="37.8" cy="28.5" r="28.8" fill="#fff"/>
	<path d="m37.4-3.5c8.95 0 16.6 3.12 22.9 9.37 3.01 3.01 5.3 6.45 6.86 10.3 1.56 3.87 2.34 7.97 2.34 12.3 0 4.38-0.773 8.49-2.31 12.3-1.54 3.83-3.82 7.21-6.83 10.1-3.12 3.08-6.67 5.45-10.6 7.09-3.96 1.64-8.06 2.46-12.3 2.46s-8.28-0.808-12.1-2.43c-3.87-1.62-7.33-3.96-10.4-7.03s-5.4-6.52-7-10.4-2.4-7.9-2.4-12.2c0-4.23 0.809-8.3 2.43-12.2s3.97-7.4 7.06-10.5c6.1-6.21 13.6-9.31 22.5-9.31zm0.116 5.77c-7.31 0-13.5 2.55-18.5 7.66-2.52 2.55-4.45 5.42-5.8 8.6-1.35 3.18-2.03 6.5-2.03 9.97 0 3.43 0.675 6.73 2.03 9.91 1.35 3.18 3.28 6.02 5.8 8.52 2.51 2.5 5.35 4.4 8.52 5.72 3.16 1.31 6.48 1.97 9.94 1.97 3.43 0 6.75-0.665 9.97-2 3.22-1.34 6.12-3.26 8.71-5.77 4.99-4.88 7.48-11 7.48-18.3 0-3.54-0.648-6.9-1.94-10.1-1.29-3.16-3.18-5.98-5.65-8.46-5.15-5.14-11.3-7.72-18.6-7.72zm-0.401 20.9-4.29 2.23c-0.458-0.951-1.02-1.62-1.68-2-0.667-0.38-1.29-0.571-1.86-0.571-2.86 0-4.29 1.88-4.29 5.66 0 1.71 0.362 3.08 1.08 4.11 0.724 1.03 1.79 1.54 3.2 1.54 1.87 0 3.18-0.915 3.94-2.74l3.94 2c-0.838 1.56-2 2.79-3.49 3.69-1.48 0.896-3.12 1.34-4.91 1.34-2.86 0-5.16-0.875-6.92-2.63-1.75-1.75-2.63-4.19-2.63-7.31 0-3.05 0.886-5.47 2.66-7.26 1.77-1.79 4.01-2.69 6.72-2.69 3.96-2e-3 6.8 1.54 8.52 4.63zm18.5 0-4.23 2.23c-0.457-0.951-1.02-1.62-1.69-2-0.668-0.38-1.31-0.571-1.91-0.571-2.86 0-4.29 1.88-4.29 5.66 0 1.71 0.363 3.08 1.09 4.11s1.79 1.54 3.2 1.54c1.86 0 3.18-0.915 3.94-2.74l4 2c-0.875 1.56-2.06 2.79-3.54 3.69-1.49 0.896-3.1 1.34-4.86 1.34-2.9 0-5.21-0.875-6.94-2.63-1.74-1.75-2.6-4.19-2.6-7.31 0-3.05 0.885-5.47 2.66-7.26 1.77-1.79 4.01-2.69 6.71-2.69 3.96-2e-3 6.78 1.54 8.46 4.63z"/>
</g><g transform="translate(160)">
	<circle cx="37.5" cy="28.7" r="29.5" fill="#fff"/>
		<path d="m37.4-3.5c8.99 0 16.6 3.08 22.7 9.26 6.21 6.17 9.32 13.8 9.32 22.7 0 8.99-3.05 16.5-9.14 22.5-6.48 6.36-14.1 9.54-22.9 9.54-8.69 0-16.2-3.16-22.5-9.48-6.28-6.29-9.43-13.8-9.43-22.5 0-8.76 3.14-16.3 9.43-22.7 6.17-6.17 13.7-9.26 22.5-9.26zm-24.7 23.4c-0.952 2.63-1.43 5.5-1.43 8.63 0 7.09 2.59 13.2 7.77 18.4 5.22 5.14 11.4 7.72 18.5 7.72 7.2 0 13.4-2.61 18.6-7.83 1.87-1.79 3.33-3.66 4.4-5.6l-12.1-5.37c-0.421 2.02-1.44 3.67-3.06 4.94-1.62 1.28-3.54 2.01-5.74 2.2v4.92h-3.71v-4.92c-3.54-0.036-6.78-1.31-9.71-3.83l4.4-4.46c2.09 1.94 4.48 2.91 7.14 2.91 1.1 0 2.05-0.246 2.83-0.743 0.78-0.494 1.17-1.31 1.17-2.46 0-0.801-0.287-1.45-0.858-1.94l-3.08-1.32-3.77-1.72-5.09-2.23zm24.9-17.7c-7.28 0-13.4 2.57-18.5 7.71-1.26 1.26-2.44 2.69-3.54 4.29l12.2 5.48c0.533-1.68 1.54-3.02 3.03-4.03 1.48-1.01 3.22-1.57 5.2-1.69v-4.92h3.72v4.92c2.93 0.153 5.6 1.14 8 2.97l-4.17 4.29c-1.79-1.26-3.62-1.88-5.49-1.88-0.991 0-1.88 0.191-2.66 0.571-0.781 0.381-1.17 1.03-1.17 1.94 0 0.267 0.095 0.533 0.285 0.8l6.86 3.09 5.14 2.28 16.4 7.31c0.535-2.25 0.801-4.53 0.801-6.86 0-7.35-2.55-13.5-7.66-18.6-5.07-5.14-11.2-7.71-18.5-7.71z"/>
</g></svg>
