---
---
<?xml version="1.0" encoding="UTF-8"?>
<svg version="1.1" viewBox="0 0 140 140" xmlns="http://www.w3.org/2000/svg">
 <rect width="140" height="140" ry="12" fill="#8be028"/>
 <path d="m50.5 86.5c5.48-6.64 4.94-12.8-1.57-19.3l-11.7-11.7c-7.14-7.14-7.09-12.1.314-19.5l2.02-2.02-8.35-8.35-3.95 3.95c-13 13-13.7 23.6-2.38 34.9l9.65 9.65c7.05 7.05 7.5 11.4 1.71 17.1a7.64 7.64 0 0 0 10.8 10.8c5.84-5.84 10.1-5.39 17.1 1.66l11.1 11.1c11.6 11.6 22.4 11 35.3-1.93l3.95-3.95-8.39-8.39-2.02 2.02c-7.32 7.32-12.4 7.41-19.4.404l-13.1-13.1c-6.73-6.73-13.4-7.41-19.8-2.06" fill="#497614"/>
 <g fill="#fff">
  <circle cx="73" cy="67" r="7.5"/>
  <circle cx="90" cy="50" r="7.5"/>
  <circle cx="108" cy="32" r="7.5"/>
 </g>
</svg>
