<?xml version="1.0" encoding="UTF-8"?>
<svg width="600" height="600" version="1.1" viewBox="0 0 159 159" xmlns="http://www.w3.org/2000/svg">
 <g transform="translate(0 -138)" stroke="#000" stroke-linecap="round">
  <g transform="translate(.36 -1.98)" stroke-linejoin="round" id="ear">
   <path d="m35.8 195-2.69-36 28.3 12.8" fill="#fff" stroke-width="1.32"/>
   <path d="m42.2 184-1.42-12.5 9.73 4.82" fill="#fcc" stroke-width="1.06"/>
  </g>
  <use transform="matrix(-1 0 0 1 165 0)" href="#ear"/>
  <g>
   <path d="m79.2 268c0 5.3-2.02 8.75-5.22 9-3.2 0.252-5.81-4.38-6.31-9.68" fill="#fff" stroke-width="1.06" id="bleg"/>
   <use href="#bleg" transform="scale(-1 1)" x="-166"/>
   <path d="m54.4 255c-4.26 8.77-21.8 12.1-28.4 3.74-6.58-8.38-11.7-2.06-11.7-2.06" fill="none" stroke-width="5.29"/>
  </g>
  <circle cx="82.5" cy="218" r="53.1" fill="#fff" stroke-linejoin="round" stroke-width="1.32" style="paint-order:normal"/>
  <g fill="none">
   <g stroke-linejoin="round">
    <path d="m69.7 184v34.3" stroke-width="1.32" id="eye"/>
    <use x="25.2" href="#eye"/>
    <path d="m65 237c5.13 8.34 13 8.02 16.8 0 4.01 8.18 13.5 8.66 16 0" stroke-width="1.32"/>
   </g>
   <g stroke-width="1.06">
    <path d="m43.9 219 7.14 3.21"/>
    <path d="m43.9 240 7.14-3.21"/>
    <path d="m120 219-7.14 3.21"/>
    <path d="m120 240-7.14-3.21"/>
   </g>
  </g>
  <path d="m56.4 261c0.193 18 2.24 20.6 8.2 20.4 5.95-0.186 8.55-0.873 8.55-16.5" fill="#fff" stroke-width="1.32" id="fleg"/>
  <use href="#fleg" transform="scale(-1 1)" x="-165"/>
 </g>
</svg>
